<?xml version="1.0" encoding="UTF-8" standalone="no"?>
<svg
   xmlns:dc="http://purl.org/dc/elements/1.1/"
   xmlns:cc="http://creativecommons.org/ns#"
   xmlns:rdf="http://www.w3.org/1999/02/22-rdf-syntax-ns#"
   xmlns:svg="http://www.w3.org/2000/svg"
   xmlns="http://www.w3.org/2000/svg"
   xmlns:xlink="http://www.w3.org/1999/xlink"
   xmlns:sodipodi="http://sodipodi.sourceforge.net/DTD/sodipodi-0.dtd"
   xmlns:inkscape="http://www.inkscape.org/namespaces/inkscape"
   width="118"
   height="89"
   version="1"
   id="svg93"
   sodipodi:docname="slider.svg"
   inkscape:version="1.0.2 (e86c870879, 2021-01-15)">
  <metadata
     id="metadata97">
    <rdf:RDF>
      <cc:Work
         rdf:about="">
        <dc:format>image/svg+xml</dc:format>
        <dc:type
           rdf:resource="http://purl.org/dc/dcmitype/StillImage" />
      </cc:Work>
    </rdf:RDF>
  </metadata>
  <sodipodi:namedview
     pagecolor="#ffffff"
     bordercolor="#666666"
     borderopacity="1"
     objecttolerance="10"
     gridtolerance="10"
     guidetolerance="10"
     inkscape:pageopacity="0"
     inkscape:pageshadow="2"
     inkscape:window-width="948"
     inkscape:window-height="1027"
     id="namedview95"
     showgrid="false"
     inkscape:zoom="8.0337079"
     inkscape:cx="73.534222"
     inkscape:cy="44.5"
     inkscape:window-x="8"
     inkscape:window-y="44"
     inkscape:window-maximized="0"
     inkscape:current-layer="svg93" />
  <defs
     id="rounded">
    <style
       type="text/css"
       id="current-color-scheme">
        .ColorScheme-Text {
        color:#eff0f1;
        }
        .ColorScheme-NegativeText {
        color:#da4453;
        }
        .ColorScheme-Highlight {
        color:#3daee9;
        }
        .ColorScheme-Background {
        color:#31363b;
      }
      .ColorScheme-ButtonBackground {
        color:#444c53;
      }
    </style>
    <linearGradient
       id="linearGradient875">
      <stop
         style="stop-color:#080808;stop-opacity:1"
         offset="0"
         id="stop3" />
      <stop
         style="stop-color:#080808;stop-opacity:0"
         offset="1"
         id="stop5" />
    </linearGradient>
    <radialGradient
       id="radialGradient877"
       cx="16"
       cy="39.833"
       r="9.167"
       fx="16"
       fy="39.833"
       gradientUnits="userSpaceOnUse"
       xlink:href="#linearGradient875"
       gradientTransform="matrix(1.2,0,0,1.2,22.8,30.2)" />
    <radialGradient
       id="radialGradient893"
       cx="16"
       cy="39"
       r="8.75"
       fx="16"
       fy="39"
       gradientUnits="userSpaceOnUse"
       xlink:href="#linearGradient875"
       gradientTransform="matrix(1.2,0,0,1.2,-7.1999999,30.2)" />
    <radialGradient
       id="radialGradient922"
       cx="16"
       cy="39.833"
       r="9.167"
       fx="16"
       fy="39.833"
       gradientUnits="userSpaceOnUse"
       xlink:href="#linearGradient875"
       gradientTransform="matrix(1.2,0,0,1.2,52.8,30.2)" />
    <radialGradient
       id="radialGradient948"
       cx="16"
       cy="39"
       r="8.75"
       fx="16"
       fy="39"
       gradientUnits="userSpaceOnUse"
       xlink:href="#linearGradient875"
       gradientTransform="matrix(1.2,0,0,1.2,-7.1999999,2.2)" />
    <radialGradient
       id="radialGradient950"
       cx="16"
       cy="39.833"
       r="9.167"
       fx="16"
       fy="39.833"
       gradientUnits="userSpaceOnUse"
       xlink:href="#linearGradient875"
       gradientTransform="matrix(1.2,0,0,1.2,22.8,2.2)" />
    <radialGradient
       id="radialGradient952"
       cx="16"
       cy="39.833"
       r="9.167"
       fx="16"
       fy="39.833"
       gradientUnits="userSpaceOnUse"
       xlink:href="#linearGradient875"
       gradientTransform="matrix(1.2,0,0,1.2,52.8,2.2)" />
    <radialGradient
       inkscape:collect="always"
       xlink:href="#linearGradient875"
       id="radialGradient923"
       gradientUnits="userSpaceOnUse"
       cx="16"
       cy="39"
       fx="16"
       fy="39"
       r="8.75"
       gradientTransform="matrix(1.2,0,0,1.2,-7.1999999,2.2)" />
    <radialGradient
       inkscape:collect="always"
       xlink:href="#linearGradient875"
       id="radialGradient947"
       gradientUnits="userSpaceOnUse"
       cx="16"
       cy="39.833"
       fx="16"
       fy="39.833"
       r="9.167"
       gradientTransform="matrix(1.2,0,0,1.2,22.8,2.2)" />
    <radialGradient
       inkscape:collect="always"
       xlink:href="#linearGradient875"
       id="radialGradient953"
       gradientUnits="userSpaceOnUse"
       cx="16"
       cy="39.833"
       fx="16"
       fy="39.833"
       r="9.167"
       gradientTransform="matrix(1.2,0,0,1.2,52.8,2.2)" />
    <radialGradient
       inkscape:collect="always"
       xlink:href="#linearGradient875"
       id="radialGradient959"
       gradientUnits="userSpaceOnUse"
       cx="16"
       cy="39.833"
       fx="16"
       fy="39.833"
       r="9.167"
       gradientTransform="matrix(1.2,0,0,1.2,52.8,30.2)" />
    <radialGradient
       inkscape:collect="always"
       xlink:href="#linearGradient875"
       id="radialGradient965"
       gradientUnits="userSpaceOnUse"
       cx="16"
       cy="39.833"
       fx="16"
       fy="39.833"
       r="9.167"
       gradientTransform="matrix(1.2,0,0,1.2,22.8,30.2)" />
    <radialGradient
       inkscape:collect="always"
       xlink:href="#linearGradient875"
       id="radialGradient971"
       gradientUnits="userSpaceOnUse"
       cx="16"
       cy="39"
       fx="16"
       fy="39"
       r="8.75"
       gradientTransform="matrix(1.2,0,0,1.2,-7.1999999,30.2)" />
  </defs>
  <path
     id="groove-top"
     style="opacity:0.2"
     d="m 36,11 v 2 h 2 v -2 z" />
  <path
     id="groove-topleft"
     style="opacity:0.2"
     d="m 36,11 c -1.12144,0 -2,0.87856 -2,2 h 2 z" />
  <rect
     id="hint-tile-center"
     style="opacity:1;fill:#ff0000"
     width="2"
     height="2"
     x="28"
     y="13"
     rx="0"
     ry="2" />
  <path
     id="groove-topright"
     style="opacity:0.2"
     d="m 40,13 c 0,-1.12144 -0.87856,-2 -2,-2 v 2 z" />
  <path
     id="groove-bottom"
     style="opacity:0.2"
     d="m 36,17 v -2 h 2 v 2 z" />
  <path
     id="groove-bottomleft"
     style="opacity:0.2"
     d="m 36,17 c -1.12144,0 -2,-0.87856 -2,-2 h 2 z" />
  <path
     id="groove-bottomright"
     style="opacity:0.2"
     d="m 40,15 c 0,1.12144 -0.87856,2 -2,2 v -2 z" />
  <path
     id="groove-center"
     style="opacity:0.2"
     d="m 36,13 v 2 h 2 v -2 z" />
  <path
     id="groove-left"
     style="opacity:0.2"
     d="m 34,13 v 2 h 2 v -2 z" />
  <path
     id="groove-right"
     style="opacity:0.2"
     d="m 38,13 v 2 h 2 v -2 z" />
  <path
     id="groove-highlight-top"
     style="opacity:1;fill:currentColor"
     class="ColorScheme-Highlight"
     d="M 46,11.000001 V 13 h 2 v -1.999999 z" />
  <path
     id="groove-highlight-topleft"
     style="opacity:1;fill:currentColor"
     class="ColorScheme-Highlight"
     d="m 46,11.000001 c -1.12144,0 -2,0.87856 -2,1.999999 h 2 z" />
  <path
     id="groove-highlight-topright"
     style="opacity:1;fill:currentColor"
     class="ColorScheme-Highlight"
     d="m 50,13 c 0,-1.121439 -0.87856,-1.999999 -2,-1.999999 V 13 Z" />
  <path
     id="groove-highlight-bottom"
     style="opacity:1;fill:currentColor"
     class="ColorScheme-Highlight"
     d="m 46,17 v -2 h 2 v 2 z" />
  <path
     id="groove-highlight-bottomleft"
     style="opacity:1;fill:currentColor"
     class="ColorScheme-Highlight"
     d="m 46,17 c -1.12144,0 -2,-0.87856 -2,-2 h 2 z" />
  <path
     id="groove-highlight-bottomright"
     style="opacity:1;fill:currentColor"
     class="ColorScheme-Highlight"
     d="m 50,15 c 0,1.12144 -0.87856,2 -2,2 v -2 z" />
  <path
     id="groove-highlight-center"
     style="opacity:1;fill:currentColor"
     class="ColorScheme-Highlight"
     d="m 46,13 v 2 h 2 v -2 z" />
  <path
     id="groove-highlight-left"
     style="opacity:1;fill:currentColor"
     class="ColorScheme-Highlight"
     d="m 44,13 v 2 h 2 v -2 z" />
  <path
     id="groove-highlight-right"
     style="opacity:1;fill:currentColor"
     class="ColorScheme-Highlight"
     d="m 48,13 v 2 h 2 v -2 z" />
  <rect
     id="rect3785-4"
     style="opacity:0.00100002"
     width="24"
     height="24"
     x="0"
     y="65" />
  <path
     id="path3921-2"
     style="fill:url(#radialGradient971);stroke-width:1.2"
     d="m 22.500001,77 a 10.5,10.5 0 0 1 -10.5,10.5 A 10.5,10.5 0 0 1 1.5,77 10.5,10.5 0 0 1 12.000001,66.5 a 10.5,10.5 0 0 1 10.5,10.5 z" />
  <path
     style="fill:url(#radialGradient893);stroke-width:1.2"
     d="m 22.500001,77 a 10.5,10.5 0 0 1 -10.5,10.5 A 10.5,10.5 0 0 1 1.5,77 10.5,10.5 0 0 1 12.000001,66.5 a 10.5,10.5 0 0 1 10.5,10.5 z"
     id="path36" />
  <path
     id="path3923-4"
     style="fill:#292d3e;stroke-width:2.25;fill-opacity:1"
     class="ColorScheme-ButtonBackground"
     d="m 21,77 a 9,9 0 0 1 -9,9 9,9 0 0 1 -9,-9 9,9 0 0 1 9,-9 9,9 0 0 1 9,9 z" />
  <g
     id="horizontal-slider-shadow"
     style="opacity:0.001"
     transform="translate(-4.9999999,-33)">
    <rect
       style="opacity:0.001"
       width="24"
       height="24"
       x="96"
       y="98"
       id="rect40" />
  </g>
  <g
     id="vertical-slider-shadow"
     style="opacity:0.001"
     transform="translate(-1.9999999,-69)">
    <rect
       style="opacity:0.001"
       width="24"
       height="24"
       x="96"
       y="98"
       id="rect43" />
  </g>
  <rect
     style="opacity:0.00100002"
     width="24"
     height="24"
     x="30"
     y="65"
     id="rect46" />
  <path
     style="fill:url(#radialGradient965);stroke-width:1.2"
     d="m 42,67 c -6.075041,2.21e-4 -10.999779,4.924959 -11,11 2.21e-4,6.07504 4.924959,10.999779 11,11 6.075041,-2.21e-4 10.999778,-4.92496 10.999999,-11 C 52.999778,71.92496 48.07504,67.000221 42,67 Z"
     id="path48" />
  <path
     style="fill:url(#radialGradient877);stroke-width:1.2"
     d="m 42,67 c -6.075041,2.21e-4 -10.999779,4.924959 -11,11 2.21e-4,6.07504 4.924959,10.999779 11,11 6.075041,-2.21e-4 10.999778,-4.92496 10.999999,-11 C 52.999778,71.92496 48.07504,67.000221 42,67 Z"
     id="path50" />
  <circle
     style="fill:#292d3e;stroke-width:2.25;fill-opacity:1"
     class="ColorScheme-ButtonBackground"
     cx="42"
     cy="77"
     r="9"
     id="circle52" />
  <circle
     id="hint-handle-size"
     style="opacity:1;fill:#ff0000"
     cx="13"
     cy="11"
     r="11" />
  <rect
     style="opacity:0.00100002"
     width="24"
     height="24"
     x="60"
     y="65"
     id="rect56" />
  <path
     style="fill:url(#radialGradient959);stroke-width:1.2"
     d="m 72,67 c -6.075041,2.21e-4 -10.999779,4.924959 -11,11 2.21e-4,6.07504 4.924959,10.999779 11,11 6.075041,-2.21e-4 10.999778,-4.92496 10.999999,-11 C 82.999778,71.92496 78.07504,67.000221 72,67 Z"
     id="path58" />
  <path
     style="fill:url(#radialGradient922);stroke-width:1.2"
     d="m 72,67 c -6.075041,2.21e-4 -10.999779,4.924959 -11,11 2.21e-4,6.07504 4.924959,10.999779 11,11 6.075041,-2.21e-4 10.999778,-4.92496 10.999999,-11 C 82.999778,71.92496 78.07504,67.000221 72,67 Z"
     id="path60" />
  <circle
     style="fill:#292d3e;stroke-width:2.25;fill-opacity:1"
     class="ColorScheme-ButtonBackground"
     cx="72"
     cy="77"
     r="9"
     id="circle62" />
  <path
     style="fill:url(#radialGradient923);stroke-width:1.2"
     d="m 22.500001,49 a 10.5,10.5 0 0 1 -10.5,10.5 A 10.5,10.5 0 0 1 1.5,49 10.5,10.5 0 0 1 12.000001,38.5 a 10.5,10.5 0 0 1 10.5,10.5 z"
     id="path67" />
  <rect
     style="opacity:0.00100002"
     width="24"
     height="24"
     x="0"
     y="37"
     id="rect65" />
  <path
     style="fill:url(#radialGradient948);stroke-width:1.2"
     d="m 22.500001,49 a 10.5,10.5 0 0 1 -10.5,10.5 A 10.5,10.5 0 0 1 1.5,49 10.5,10.5 0 0 1 12.000001,38.5 a 10.5,10.5 0 0 1 10.5,10.5 z"
     id="path69" />
  <path
     style="fill:#292d3e;fill-opacity:1;stroke-width:2.25"
     class="ColorScheme-ButtonBackground"
     d="m 21,49 a 9,9 0 0 1 -9,9 9,9 0 0 1 -9,-9 9,9 0 0 1 9,-9 9,9 0 0 1 9,9 z"
     id="path71" />
  <rect
     style="opacity:0.00100002"
     width="24"
     height="24"
     x="30"
     y="37"
     id="rect74" />
  <path
     style="fill:url(#radialGradient947);stroke-width:1.2"
     d="m 42,39 c -6.075041,2.21e-4 -10.999779,4.924959 -11,11 2.21e-4,6.07504 4.924959,10.999779 11,11 6.075041,-2.21e-4 10.999778,-4.92496 10.999999,-11 C 52.999778,43.92496 48.07504,39.000221 42,39 Z"
     id="path76" />
  <path
     style="fill:url(#radialGradient950);stroke-width:1.2"
     d="m 42,39 c -6.075041,2.21e-4 -10.999779,4.924959 -11,11 2.21e-4,6.07504 4.924959,10.999779 11,11 6.075041,-2.21e-4 10.999778,-4.92496 10.999999,-11 C 52.999778,43.92496 48.07504,39.000221 42,39 Z"
     id="path78" />
  <circle
     style="fill:#292d3e;stroke-width:2.25;fill-opacity:1"
     class="ColorScheme-ButtonBackground"
     cx="42"
     cy="49"
     r="9"
     id="circle80" />
  <rect
     style="opacity:0.00100002"
     width="24"
     height="24"
     x="60"
     y="37"
     id="rect83" />
  <path
     style="fill:url(#radialGradient953);stroke-width:1.2"
     d="m 72,39 c -6.075041,2.21e-4 -10.999779,4.924959 -11,11 2.21e-4,6.07504 4.924959,10.999779 11,11 6.075041,-2.21e-4 10.999778,-4.92496 10.999999,-11 C 82.999778,43.92496 78.07504,39.000221 72,39 Z"
     id="path85" />
  <path
     style="fill:url(#radialGradient952);stroke-width:1.2"
     d="m 72,39 c -6.075041,2.21e-4 -10.999779,4.924959 -11,11 2.21e-4,6.07504 4.924959,10.999779 11,11 6.075041,-2.21e-4 10.999778,-4.92496 10.999999,-11 C 82.999778,43.92496 78.07504,39.000221 72,39 Z"
     id="path87" />
  <circle
     style="fill:#292d3e;stroke-width:2.25;fill-opacity:1"
     class="ColorScheme-ButtonBackground"
     cx="72"
     cy="49"
     r="9"
     id="circle89" />
  <rect
     id="hint-stretch-borders"
     style="opacity:1;fill:#ff0000"
     width="2"
     height="2"
     x="28"
     y="9" />
</svg>
